<?xml version="1.0" encoding="utf-8"?>
<!-- Generator: Adobe Illustrator 16.0.0, SVG Export Plug-In . SVG Version: 6.00 Build 0)  -->
<!DOCTYPE svg PUBLIC "-//W3C//DTD SVG 1.1//EN" "http://www.w3.org/Graphics/SVG/1.1/DTD/svg11.dtd">
<svg version="1.1" id="Layer_1" xmlns="http://www.w3.org/2000/svg" xmlns:xlink="http://www.w3.org/1999/xlink" x="0px" y="0px"
	 width="72px" height="58px" viewBox="0 0 72 58" enable-background="new 0 0 72 58" xml:space="preserve">
<path id="instagram-instagram" fill="#989898" d="M55.896,25.583h-4.672c0.341,1.322,0.544,2.701,0.544,4.129
	c0,9.119-7.393,16.512-16.512,16.512c-9.118,0-16.509-7.393-16.509-16.512c0-1.427,0.202-2.807,0.542-4.129h-4.672v22.706
	c0,1.135,0.924,2.062,2.066,2.062h37.147c1.142,0,2.065-0.924,2.065-2.062V25.583z M55.896,11.137c0-1.139-0.924-2.063-2.065-2.063
	h-6.189c-1.14,0-2.064,0.924-2.064,2.063v6.192c0,1.139,0.923,2.063,2.064,2.063h6.189c1.142,0,2.065-0.924,2.065-2.063V11.137z
	 M35.258,19.394c-5.699,0-10.319,4.619-10.319,10.318c0,5.698,4.62,10.32,10.319,10.32c5.702,0,10.319-4.622,10.319-10.32
	C45.577,24.013,40.959,19.394,35.258,19.394 M55.896,56.543H14.618c-3.418,0-6.19-2.773-6.19-6.193V9.073
	c0-3.42,2.772-6.19,6.19-6.19h41.278c3.42,0,6.191,2.771,6.191,6.19V50.35C62.088,53.77,59.316,56.543,55.896,56.543"/>
</svg>
