<?xml version="1.0" encoding="utf-8"?>
<!-- Generator: Adobe Illustrator 16.0.0, SVG Export Plug-In . SVG Version: 6.00 Build 0)  -->
<!DOCTYPE svg PUBLIC "-//W3C//DTD SVG 1.1//EN" "http://www.w3.org/Graphics/SVG/1.1/DTD/svg11.dtd">
<svg version="1.1" id="Facebook" xmlns="http://www.w3.org/2000/svg" xmlns:xlink="http://www.w3.org/1999/xlink" x="0px" y="0px"
	 width="72px" height="72px" viewBox="0 0 72 72" enable-background="new 0 0 72 72" xml:space="preserve">
<g>
	<rect id="facebook-back" fill="#3A5A99" width="72" height="72"/>
	<path id="facebook-facebook" fill="#FFFFFF" d="M60.365,9.674h-47.73c-1.636,0-2.961,1.325-2.961,2.961v47.731
		c0,1.636,1.325,2.961,2.961,2.961h25.696V42.55h-6.992v-8.098h6.992v-5.971c0-6.931,4.232-10.704,10.416-10.704
		c2.96,0,5.505,0.221,6.246,0.319v7.241l-4.287,0.002c-3.362,0-4.013,1.599-4.013,3.942v5.17h8.019l-1.044,8.098h-6.975v20.777
		h13.672c1.637,0,2.962-1.325,2.962-2.961V12.635C63.327,10.999,62.002,9.674,60.365,9.674z"/>
</g>
</svg>
