<?xml version="1.0" encoding="utf-8"?>
<!-- Generator: Adobe Illustrator 16.0.0, SVG Export Plug-In . SVG Version: 6.00 Build 0)  -->
<!DOCTYPE svg PUBLIC "-//W3C//DTD SVG 1.1//EN" "http://www.w3.org/Graphics/SVG/1.1/DTD/svg11.dtd">
<svg version="1.1" id="Layer_1" xmlns="http://www.w3.org/2000/svg" xmlns:xlink="http://www.w3.org/1999/xlink" x="0px" y="0px"
	 width="280px" height="200px" viewBox="0 0 280 200" enable-background="new 0 0 280 200" xml:space="preserve">
<path fill="#D8D8D8" d="M110,199.498c-3.323,0.334-6.66,0.502-10,0.502C44.771,200,0,155.229,0,100S44.771,0,100,0
	c3.34,0,6.677,0.167,10,0.501v30c-3.317-0.406-6.659-0.573-10-0.501c-38.66,0-70,31.34-70,70s31.34,70,70,70
	c3.341,0.072,6.683-0.096,10-0.502V199.498z"/>
<path fill="#D8D8D8" d="M280,199.498c-3.322,0.334-6.66,0.502-10,0.502c-55.229,0-100-44.771-100-100S214.771,0,270,0
	c3.34,0,6.678,0.167,10,0.501v30c-3.316-0.406-6.659-0.573-10-0.501c-32.883-0.003-61.334,22.882-68.38,55H260v30h-58.38
	c7.046,32.118,35.497,55.003,68.38,55c3.341,0.072,6.684-0.096,10-0.502V199.498z"/>
</svg>
