<?xml version="1.0" encoding="utf-8"?>
<!-- Generator: Adobe Illustrator 16.0.0, SVG Export Plug-In . SVG Version: 6.00 Build 0)  -->
<!DOCTYPE svg PUBLIC "-//W3C//DTD SVG 1.1//EN" "http://www.w3.org/Graphics/SVG/1.1/DTD/svg11.dtd">
<svg version="1.1" id="Layer_1" xmlns="http://www.w3.org/2000/svg" xmlns:xlink="http://www.w3.org/1999/xlink" x="0px" y="0px"
	 width="87.75px" height="58px" viewBox="0 0 87.75 58" enable-background="new 0 0 87.75 58" xml:space="preserve">
<g>
	<g>
		<path fill-rule="evenodd" clip-rule="evenodd" fill="#989898" d="M46.511,8.696c-2.099,2.149-4.207,4.273-6.267,6.444
			c-0.573,0.604-0.993,0.294-1.569,0.056c-2.552-1.057-5.048-2.476-7.713-2.987c-6.879-1.317-12.383,1.342-16.285,7.004
			c-7.364,10.686-0.781,24.971,12.111,26.511c7.486,0.894,13.703-2.754,16.451-9.663c0.184-0.465,0.301-0.958,0.501-1.604
			c-3.224,0-6.298,0.007-9.372-0.003c-1.67-0.006-3.338-0.053-5.008-0.056c-0.774,0-1.166-0.251-1.152-1.12
			c0.04-2.439,0.034-4.879-0.006-7.318c-0.016-0.857,0.331-1.092,1.143-1.089c7.961,0.027,15.921,0.026,23.882,0.029
			c0.625,0.001,1.202-0.019,1.235,0.879c0.234,6.234-0.324,12.33-3.497,17.873c-4.146,7.241-10.568,11.106-18.735,12.145
			c-8.088,1.028-15.445-0.863-21.575-6.324C2.318,42.044-0.751,32.609,2.089,21.872C4.914,11.193,12.186,4.413,23.058,2.161
			c8.399-1.74,16.11,0.372,22.848,5.771c0.133,0.106,0.268,0.215,0.388,0.335C46.349,8.325,46.372,8.415,46.511,8.696z"/>
	</g>
	<g>
		<path fill-rule="evenodd" clip-rule="evenodd" fill="#989898" d="M78.666,39.65c0,0.71-0.576,1.285-1.286,1.285h-5.407
			c-0.709,0-1.283-0.575-1.283-1.285V18.936c0-0.709,0.574-1.286,1.283-1.286h5.407c0.71,0,1.286,0.576,1.286,1.286V39.65z"/>
		<path fill-rule="evenodd" clip-rule="evenodd" fill="#989898" d="M64.319,33.281c-0.71,0-1.284-0.575-1.284-1.284v-5.408
			c0-0.708,0.574-1.284,1.284-1.284h20.715c0.709,0,1.285,0.575,1.285,1.284v5.408c0,0.709-0.576,1.284-1.285,1.284H64.319z"/>
	</g>
</g>
</svg>
