<?xml version="1.0" encoding="utf-8"?>
<!-- Generator: Adobe Illustrator 16.0.0, SVG Export Plug-In . SVG Version: 6.00 Build 0)  -->
<!DOCTYPE svg PUBLIC "-//W3C//DTD SVG 1.1//EN" "http://www.w3.org/Graphics/SVG/1.1/DTD/svg11.dtd">
<svg version="1.1" id="Layer_1" xmlns="http://www.w3.org/2000/svg" xmlns:xlink="http://www.w3.org/1999/xlink" x="0px" y="0px"
	 width="934.057px" height="300px" viewBox="0 0 934.057 300" enable-background="new 0 0 934.057 300" xml:space="preserve">
<g>
	<g>
		<path fill="#FFFFFF" d="M419.071,125.293h73.401v9.879h-62.387v43.9h55.428v9.865h-55.428v57.87h-11.015V125.293z"/>
		<path fill="#FFFFFF" d="M497.963,125.293h11.021v111.653h64.817v9.861h-75.838V125.293z"/>
		<path fill="#FFFFFF" d="M610.716,125.293h12.309l45.388,121.515h-11.84l-14.094-37.776h-52.671l-13.934,37.776h-11.827
			L610.716,125.293z M593.214,199.157h45.528l-22.351-62.293L593.214,199.157z"/>
		<path fill="#FFFFFF" d="M675.98,206.813c-0.483,25.015,16.528,32.68,37.759,32.68c12.15,0,30.625-6.98,30.625-24.681
			c0-13.788-12.964-19.232-23.823-21.952l-25.763-6.635c-13.616-3.577-26.087-10.211-26.087-29.272
			c0-11.912,7.289-34.211,39.861-34.211c23.013,0,42.776,12.763,42.776,37.779h-11.011c-0.818-18.374-15.076-27.909-31.604-27.909
			c-15.068,0-29.004,6.127-29.004,24.167c0,11.403,7.938,16.338,17.496,18.551l28.195,7.317
			c16.373,4.604,29.987,12.252,29.987,31.999c0,8.337-3.249,34.711-44.239,34.711c-27.388,0-47.481-12.932-46.186-42.545H675.98z"/>
		<path fill="#FFFFFF" d="M764.751,125.293h11.017v52.758h68.714v-52.758H855.5v121.515h-11.019v-58.88h-68.714v58.88h-11.017
			V125.293z"/>
	</g>
	<g>
		<path fill-rule="evenodd" clip-rule="evenodd" fill="#FFFFFF" d="M92.962,71.19c0,15.897,0,31.713,0,47.606
			c-4.348,0-8.625,0-12.974,0c0-19.895,0-39.772,0-59.703c31.064,0,62.094,0,93.203,0c0,19.886,0,39.763,0,59.709
			c-4.214,0-8.415,0-12.738,0c0-15.871,0-31.709,0-47.612C137.926,71.19,115.526,71.19,92.962,71.19z"/>
		<path fill-rule="evenodd" clip-rule="evenodd" fill="#3B8DCC" d="M135.211,81.479c4.774,0,9.45,0,14.229,0
			c0,10.877,0,21.701,0,32.604c-4.759,0-9.446,0-14.229,0C135.211,103.249,135.211,92.426,135.211,81.479z"/>
		<path fill-rule="evenodd" clip-rule="evenodd" fill="#3B8DCC" d="M120.445,81.155c0,10.898,0,21.699,0,32.565
			c-4.662,0-9.265,0-13.983,0c0-10.817,0-21.642,0-32.565C111.061,81.155,115.688,81.155,120.445,81.155z"/>
	</g>
	<path fill="#FFFFFF" d="M180.413,199.37c0,35.357-16.219,52.955-53.128,52.955c-36.895,0-53.128-17.598-53.128-52.955v-71.579
		h31.775v73.455c0,15.721,5.639,23.744,21.353,23.744c15.724,0,21.355-8.023,21.355-23.744v-73.455h31.773V199.37z"/>
	<path fill="#FFFFFF" d="M225.165,205.423c0.692,14.428,9.458,19.069,23.188,19.069c9.621,0,19.592-3.437,19.592-12.545
		c0-10.992-17.529-12.879-35.217-17.861c-17.354-4.978-35.902-12.707-35.902-35.382c0-26.795,26.969-37.273,49.985-37.273
		c24.221,0,49.12,12.027,49.12,39.506h-31.946c0.517-10.991-10.13-14.775-19.748-14.775c-6.873,0-15.468,2.406-15.468,10.485
		c0,9.613,17.697,11.162,35.564,16.143c17.689,4.979,35.554,13.228,35.554,35.384c0,31.088-26.456,41.051-53.421,41.051
		c-27.998,0-53.244-12.365-53.244-43.801H225.165z"/>
	<path fill="#FFFFFF" d="M306.204,124.008h57.371c21.122-0.521,44.313,5.327,44.313,30.748c0,10.994-6.526,19.922-16.147,24.736
		c13.061,3.943,21.127,15.111,21.127,29.029c0,29.19-21.472,38.124-47.746,38.124h-58.917V124.008z M338.161,172.273h24.73
		c5.493,0,13.05-2.921,13.05-11.682c0-8.933-6.353-11.849-13.05-11.849h-24.73V172.273z M338.161,221.056h25.581
		c10.141,0,17.185-3.607,17.185-13.74c0-10.822-7.56-14.43-17.185-14.43h-25.581V221.056z"/>
</g>
</svg>
