<?xml version="1.0" encoding="utf-8"?>
<!-- Generator: Adobe Illustrator 16.0.0, SVG Export Plug-In . SVG Version: 6.00 Build 0)  -->
<!DOCTYPE svg PUBLIC "-//W3C//DTD SVG 1.1//EN" "http://www.w3.org/Graphics/SVG/1.1/DTD/svg11.dtd">
<svg version="1.1" id="Layer_1" xmlns="http://www.w3.org/2000/svg" xmlns:xlink="http://www.w3.org/1999/xlink" x="0px" y="0px"
	 width="75px" height="75px" viewBox="0 0 75 75" enable-background="new 0 0 75 75" xml:space="preserve">
<g>
	<g>
		<path fill="#2B5682" stroke="#2B5682" stroke-miterlimit="10" d="M50.006,70.166h-25.44c-2.178,0-3.951-2.021-3.951-4.51V9.927
			c0-2.487,1.773-4.51,3.951-4.51h25.44c2.18,0,3.952,2.023,3.952,4.51v55.729C53.958,68.145,52.186,70.166,50.006,70.166z
			 M24.565,7.023c-1.404,0-2.545,1.302-2.545,2.904v55.729c0,1.602,1.141,2.904,2.545,2.904h25.44c1.403,0,2.544-1.303,2.544-2.904
			V9.927c0-1.602-1.141-2.904-2.544-2.904H24.565z"/>
		<rect x="21.048" y="14.438" fill="#2B5682" width="32.476" height="1.607"/>
		<rect x="21.318" y="53.855" fill="#2B5682" width="31.936" height="1.605"/>
		<rect x="33.009" y="9.681" fill="#2B5682" width="8.554" height="1.854"/>
		<ellipse fill="none" stroke="#2B5682" stroke-width="2" stroke-miterlimit="10" cx="37.287" cy="62.377" rx="2.598" ry="2.775"/>
	</g>
</g>
</svg>
