<?xml version="1.0" encoding="utf-8"?>
<!-- Generator: Adobe Illustrator 16.0.0, SVG Export Plug-In . SVG Version: 6.00 Build 0)  -->
<!DOCTYPE svg PUBLIC "-//W3C//DTD SVG 1.1//EN" "http://www.w3.org/Graphics/SVG/1.1/DTD/svg11.dtd">
<svg version="1.1" id="Layer_1" xmlns="http://www.w3.org/2000/svg" xmlns:xlink="http://www.w3.org/1999/xlink" x="0px" y="0px"
	 width="75px" height="75px" viewBox="0 0 75 75" enable-background="new 0 0 75 75" xml:space="preserve">
<g>
	<g>
		<g>
			<g>
				<path fill="#2B5682" d="M49.798,70.098H24.619c-2.155,0-3.911-1.877-3.911-4.186V14.199c0-2.308,1.756-4.185,3.911-4.185h25.179
					c2.156,0,3.911,1.877,3.911,4.185v51.713C53.709,68.221,51.954,70.098,49.798,70.098z M24.619,11.505
					c-1.391,0-2.52,1.208-2.52,2.694v51.713c0,1.486,1.129,2.693,2.52,2.693h25.179c1.39,0,2.519-1.207,2.519-2.693V14.199
					c0-1.486-1.129-2.694-2.519-2.694H24.619z"/>
				<path fill="#2B5682" d="M49.798,70.598H24.619c-2.434,0-4.411-2.103-4.411-4.686V14.199c0-2.583,1.979-4.685,4.411-4.685h25.179
					c2.433,0,4.411,2.102,4.411,4.685v51.713C54.209,68.496,52.23,70.598,49.798,70.598z M24.619,10.514
					c-1.881,0-3.411,1.653-3.411,3.685v51.713c0,2.031,1.53,3.686,3.411,3.686h25.179c1.882,0,3.411-1.654,3.411-3.686V14.199
					c0-2.032-1.529-3.685-3.411-3.685H24.619z M49.798,69.105H24.619c-1.664,0-3.02-1.433-3.02-3.193V14.199
					c0-1.761,1.354-3.194,3.02-3.194h25.179c1.664,0,3.019,1.433,3.019,3.194v51.713C52.814,67.673,51.462,69.105,49.798,69.105z
					 M24.619,12.005c-1.113,0-2.02,0.984-2.02,2.194v51.713c0,1.209,0.905,2.193,2.02,2.193h25.179c1.112,0,2.019-0.983,2.019-2.193
					V14.199c0-1.21-0.905-2.194-2.019-2.194H24.619z"/>
			</g>
		</g>
	</g>
	<rect x="30.209" y="4.641" fill="#2B5682" width="12.667" height="5.333"/>
	<rect x="25.542" y="56.309" fill="#2B5682" width="23" height="7.666"/>
	<rect x="25.542" y="45.641" fill="#2B5682" width="23" height="7.668"/>
	<path fill="#2B5682" d="M47.376,34.475v6.917h-21v-6.917H47.376 M48.376,33.475h-23v8.917h23V33.475L48.376,33.475z"/>
	<path fill="#2B5682" d="M47.459,22.183V29.1h-21v-6.917H47.459 M48.459,21.183h-23V30.1h23V21.183L48.459,21.183z"/>
</g>
</svg>
