<?xml version="1.0" encoding="utf-8"?>
<!-- Generator: Adobe Illustrator 16.0.0, SVG Export Plug-In . SVG Version: 6.00 Build 0)  -->
<!DOCTYPE svg PUBLIC "-//W3C//DTD SVG 1.1//EN" "http://www.w3.org/Graphics/SVG/1.1/DTD/svg11.dtd">
<svg version="1.1" id="Layer_1" xmlns="http://www.w3.org/2000/svg" xmlns:xlink="http://www.w3.org/1999/xlink" x="0px" y="0px"
	 width="430.5px" height="200px" viewBox="0 0 430.5 200" enable-background="new 0 0 430.5 200" xml:space="preserve">
<g>
	<path fill-rule="evenodd" clip-rule="evenodd" fill="#D8D8D8" d="M64.615,91.509c0.961,0,1.659,0,2.356,0
		c12.077,0,24.151-0.021,36.228,0.028c1.414,0.006,2.37-0.36,3.297-1.496c13.899-17.03,28.389-33.533,44.038-48.985
		c12.671-12.513,25.899-24.391,40.714-34.349c2.731-1.835,5.955-2.961,9-4.3c0.704-0.31,1.634-0.29,2.427-0.18
		c1.912,0.266,2.921,1.936,1.96,3.612c-1.188,2.07-2.54,4.125-4.178,5.849c-4.703,4.954-9.527,9.793-14.406,14.576
		c-20.655,20.245-39.131,42.389-56.95,65.111c-0.315,0.401-0.574,0.849-0.976,1.45c6.087,1.275,10.951,4.19,14.416,9.236
		c2.819,4.105,4.085,8.719,4.139,13.625c0.168,14.758-7.708,23.093-21.607,26.561c0.218,0.191,0.333,0.366,0.481,0.405
		c7.118,1.834,11.203,7.23,14.533,13.091c4.811,8.475,9.125,17.23,13.648,25.87c0.079,0.15,0.101,0.33,0.197,0.66
		c-0.531,0.04-1.02,0.105-1.506,0.105c-9.484,0.007-18.966-0.022-28.451,0.038c-1.189,0.008-1.75-0.406-2.282-1.396
		c-5.07-9.414-10.177-18.81-15.297-28.195c-1.858-3.405-4.205-6.424-8.327-6.979c-5.568-0.747-5.331-0.97-5.334,4.135
		c-0.005,10.013-0.001,20.027-0.001,30.042c0,0.702,0,1.404,0,2.359c-0.725,0-1.35,0-1.973,0c-7.011,0-14.021,0.06-21.028-0.043
		c-1.789-0.023-3.103,0.538-4.419,1.661c-5.37,4.595-10.804,9.111-16.218,13.653c-0.356,0.298-0.741,0.562-1.14,0.861
		c-2.674-6.444-5.231-12.861-7.988-19.191c-6.458-14.829-13.506-29.36-22.536-42.835c-4.043-6.034-8.491-11.735-14.669-16.278
		c3.797-2.371,7.411-4.765,11.158-6.933c5.34-3.089,10.789-5.985,16.879-7.37c1.029-0.233,2.083-0.438,3.134-0.484
		c2.476-0.114,4.747,0.479,6.121,2.736c3.422,5.62,6.978,11.17,10.082,16.964c3.882,7.246,7.368,14.702,11.026,22.068
		c0.261,0.523,0.538,1.038,0.915,1.768c1.342-1.71,2.586-3.145,2.575-5.462c-0.073-16.552-0.038-33.103-0.038-49.653
		C64.615,93.144,64.615,92.445,64.615,91.509z M92.772,109.279c0,6.673,0,12.828,0,19.136c6.619,0.131,13.184,0.39,19.617-1.416
		c3.938-1.107,6.073-4.151,6.036-8.622c-0.031-4.06-2.334-7.559-6.262-7.999C105.778,109.668,99.319,109.616,92.772,109.279z"/>
	<path fill-rule="evenodd" clip-rule="evenodd" fill="#D8D8D8" d="M245.005,91.571c9.299,0,18.471,0,27.806,0
		c0,10.504,0,20.96,0,31.565c10.304,0,20.445,0,30.763,0c0-10.476,0-20.931,0-31.503c9.496,0,18.818,0,28.24,0
		c0,30.209,0,60.389,0,90.659c-9.35,0-18.633,0-28.092,0c0-12.149,0-24.307,0-36.62c-10.322,0-20.465,0-30.776,0
		c0,12.14,0,24.303,0,36.588c-9.375,0-18.587,0-27.94,0C245.005,152.098,245.005,121.923,245.005,91.571z"/>
	<path fill-rule="evenodd" clip-rule="evenodd" fill="#D8D8D8" d="M345.892,152.199c8.991-0.566,17.724-1.115,26.571-1.676
		c0.386,1.541,0.754,2.997,1.112,4.456c2.071,8.415,9.47,11.937,17.275,10.927c2.09-0.27,4.313-0.962,6.066-2.093
		c5.78-3.728,5.565-11.368-0.574-14.466c-3.715-1.873-7.878-2.972-11.939-4.026c-7.561-1.963-15.132-3.827-22.012-7.698
		c-6.679-3.757-11.499-9.021-12.749-16.809c-1.705-10.622,3.071-20.165,12.436-25.552c4.937-2.838,10.306-4.395,15.896-4.708
		c6.21-0.347,12.48-0.465,18.671,0.011c7.848,0.602,15.24,2.878,20.985,8.765c4.181,4.286,6.159,9.629,7.235,15.382
		c0.128,0.69,0.201,1.39,0.329,2.299c-2.939,0.213-5.853,0.459-8.77,0.627c-5.464,0.313-10.932,0.564-16.396,0.884
		c-0.892,0.054-1.157-0.219-1.37-1.103c-2.149-8.859-10.509-13.04-19.032-9.575c-2.667,1.084-4.621,3.648-4.475,6.207
		c0.158,2.739,1.898,4.485,4.355,5.216c4.654,1.378,9.384,2.53,14.097,3.713c7.112,1.786,14.232,3.574,20.733,7.111
		c7.2,3.918,11.993,9.661,13.439,17.946c2.068,11.846-3.618,23.992-14.192,30.126c-5.757,3.34-12.041,4.823-18.614,5.351
		c-8.253,0.666-16.42,0.234-24.557-1.4c-14.765-2.965-21.858-14.251-24.019-26.104C346.188,154.863,346.087,153.697,345.892,152.199
		z"/>
	<path fill-rule="evenodd" clip-rule="evenodd" fill="#D8D8D8" d="M192.831,184.023c-7.897-0.232-15.471-1.526-22.242-5.829
		c-8.565-5.443-13.802-13.122-15.088-23.281c-1.261-9.956,0.479-19.199,6.97-27.175c5.562-6.831,12.856-10.706,21.457-12.091
		c8.769-1.412,17.503-1.151,25.88,2.066c12.254,4.71,19.077,13.809,20.687,26.791c1.114,9.002-0.413,17.478-5.748,24.981
		c-5.585,7.849-13.392,12.148-22.813,13.595C198.92,183.541,195.866,183.717,192.831,184.023z M179.816,149.552
		c0.149,0.037,0.3,0.077,0.448,0.114c0.136,3.589,0.376,7.183,2.053,10.444c2.367,4.597,6.097,6.998,11.394,6.731
		c4.935-0.247,8.421-2.767,10.135-7.222c2.479-6.448,2.538-13.118,0.172-19.638c-1.749-4.813-6.018-7.792-10.75-7.727
		c-5.271,0.071-9.23,2.558-11.121,7.452C180.941,142.823,180.564,146.259,179.816,149.552z"/>
</g>
</svg>
