<?xml version="1.0" encoding="utf-8"?>
<!-- Generator: Adobe Illustrator 16.0.0, SVG Export Plug-In . SVG Version: 6.00 Build 0)  -->
<!DOCTYPE svg PUBLIC "-//W3C//DTD SVG 1.1//EN" "http://www.w3.org/Graphics/SVG/1.1/DTD/svg11.dtd">
<svg version="1.1" id="Layer_1" xmlns="http://www.w3.org/2000/svg" xmlns:xlink="http://www.w3.org/1999/xlink" x="0px" y="0px"
	 width="29.833px" height="26.875px" viewBox="0 0 29.833 26.875" enable-background="new 0 0 29.833 26.875" xml:space="preserve">
<g>
	<path fill-rule="evenodd" clip-rule="evenodd" fill="#1C7EB6" d="M0,1.963c0.042-0.016,0.085-0.009,0.127-0.009
		c6.241,0,12.481,0,18.722,0c0.038,0,0.076,0,0.112,0c-0.318,0.348-3.022,3.071-3.022,3.071c-0.242,0-0.102,0.013-0.39,0.013
		c-2.052-0.006-4.104-0.005-6.154-0.005c-2.037,0-4.073,0.001-6.109,0.002c-0.156,0-0.143-0.008-0.143,0.146
		c0,6.075,0,12.148,0,18.222c0,0.158-0.016,0.141,0.146,0.141c6.066,0,12.132,0,18.199,0c0.15,0,0.15,0,0.157-0.149
		c0.004-0.073,0.005-0.147,0.005-0.221c0-1.847,0-3.693,0-5.54c0-0.174,0.002-0.563-0.002-0.737
		c1.599-1.702,3.047-3.172,3.084-3.208c0,0.125,0.001,0.124,0.001,0.167c0,2.343,0,4.685,0,7.027c0,1.878,0,3.755,0,5.633
		c0,0.046,0.005,0.093,0.006,0.139c-8.244,0-16.487,0-24.738,0C0,18.425,0,10.194,0,1.963z"/>
	<path fill-rule="evenodd" clip-rule="evenodd" fill="#1C7EB6" d="M7.533,12.363c0.02-0.045,0.055-0.071,0.084-0.102
		c1.008-1.007,2.015-2.015,3.022-3.022c0.009-0.007,0.017-0.017,0.024-0.024c0.06-0.056,0.061-0.057,0.115,0
		c0.15,0.156,0.301,0.313,0.451,0.469c0.486,0.509,0.974,1.018,1.46,1.527c0.385,0.403,0.77,0.806,1.155,1.209
		c0.01,0.012,0.021,0.022,0.031,0.034c0.029,0.037,0.054,0.03,0.085-0.001c0.123-0.124,0.248-0.245,0.371-0.368
		c0.741-0.732,1.481-1.464,2.222-2.196c0.629-0.62,1.257-1.24,1.884-1.86c0.615-0.606,1.229-1.213,1.844-1.819
		c0.624-0.618,1.25-1.235,1.875-1.852c0.611-0.604,1.224-1.208,1.835-1.812c0.628-0.621,1.256-1.241,1.884-1.86
		c0.212-0.209,0.425-0.418,0.638-0.627C26.535,0.037,26.554,0.01,26.597,0c0.138,0.139,0.28,0.281,0.422,0.423
		c0.884,0.885,1.768,1.769,2.651,2.654c0.121,0.122,0.121,0.122,0.003,0.24c-0.583,0.578-1.165,1.157-1.748,1.735
		c-0.898,0.891-1.798,1.783-2.696,2.673c-0.816,0.81-1.634,1.618-2.45,2.427c-0.916,0.908-1.831,1.815-2.746,2.723
		c-0.851,0.842-1.7,1.684-2.55,2.526c-0.877,0.869-1.754,1.738-2.631,2.607c-0.278,0.275-0.557,0.549-0.834,0.824
		c-0.078,0.077-0.065,0.088-0.15,0.001c-0.67-0.683-1.339-1.366-2.008-2.049c-0.545-0.556-1.09-1.111-1.634-1.666
		c-0.875-0.894-1.75-1.787-2.625-2.68C7.577,12.414,7.555,12.387,7.533,12.363z"/>
</g>
</svg>
