<?xml version="1.0" encoding="utf-8"?>
<!-- Generator: Adobe Illustrator 16.0.0, SVG Export Plug-In . SVG Version: 6.00 Build 0)  -->
<!DOCTYPE svg PUBLIC "-//W3C//DTD SVG 1.1//EN" "http://www.w3.org/Graphics/SVG/1.1/DTD/svg11.dtd">
<svg version="1.1" id="Layer_1" xmlns="http://www.w3.org/2000/svg" xmlns:xlink="http://www.w3.org/1999/xlink" x="0px" y="0px"
	 width="72px" height="58px" viewBox="0 0 72 58" enable-background="new 0 0 72 58" xml:space="preserve">
<g>
	<g>
		<path fill="#989898" d="M2.354,50.162c7.469,0.722,14.186-1.12,20.161-5.672c-2.897-0.144-5.516-1.048-7.837-2.772
			c-2.328-1.735-3.912-4.006-4.867-6.813c2.047,0.396,4.035,0.321,6.024-0.209c-3.161-0.758-5.785-2.359-7.819-4.896
			c-2.039-2.541-2.974-5.462-3.008-8.749c1.896,1.034,3.88,1.635,6.027,1.687C7.107,19.814,5.094,15.92,5.134,11.04
			c0.02-2.327,0.661-4.526,1.87-6.561c3.736,4.543,8.232,8.103,13.527,10.622c4.634,2.205,9.521,3.434,14.683,3.697
			c-0.058-0.381-0.112-0.711-0.156-1.043c-0.057-0.433-0.149-0.865-0.146-1.298c0.004-0.879,0.01-1.764,0.111-2.634
			c0.12-1.025,0.383-2.026,0.764-2.995c0.396-1.012,0.863-1.986,1.504-2.865c0.416-0.569,0.865-1.116,1.335-1.645
			c1.024-1.157,2.259-2.051,3.623-2.773c1.129-0.597,2.319-1.026,3.569-1.276c0.51-0.102,1.031-0.171,1.551-0.212
			c0.588-0.045,1.18-0.062,1.77-0.055c1.113,0.014,2.212,0.173,3.268,0.518c0.881,0.288,1.752,0.629,2.59,1.029
			c0.846,0.402,1.629,0.929,2.337,1.554c0.405,0.36,0.802,0.734,1.211,1.091c0.063,0.054,0.185,0.075,0.269,0.061
			c1.252-0.225,2.479-0.554,3.661-1.014c1.151-0.447,2.283-0.951,3.411-1.46c0.487-0.22,0.942-0.516,1.471-0.81
			c-1.089,3.24-3.043,5.725-5.869,7.542c2.663-0.312,5.208-1.021,7.652-2.092c0.014,0.019,0.024,0.036,0.039,0.053
			c-0.39,0.528-0.757,1.076-1.172,1.581c-0.638,0.778-1.294,1.543-1.976,2.283c-0.446,0.483-0.942,0.921-1.432,1.36
			c-0.47,0.419-0.959,0.815-1.444,1.215c-0.186,0.154-0.383,0.296-0.581,0.439c-0.138,0.099-0.209,0.212-0.205,0.396
			c0.012,0.682,0.019,1.364,0,2.043c-0.021,0.861-0.033,1.724-0.108,2.582c-0.158,1.769-0.432,3.522-0.824,5.255
			c-0.346,1.536-0.748,3.054-1.295,4.525c-0.455,1.226-0.952,2.434-1.471,3.633c-0.7,1.612-1.561,3.143-2.494,4.632
			c-0.762,1.224-1.578,2.405-2.482,3.525c-0.627,0.773-1.279,1.53-1.949,2.27c-0.611,0.67-1.234,1.333-1.903,1.947
			c-0.782,0.722-1.595,1.419-2.437,2.068c-0.973,0.748-1.975,1.463-2.996,2.146c-0.738,0.492-1.511,0.944-2.303,1.348
			c-1.226,0.623-2.475,1.207-3.729,1.771c-0.576,0.261-1.183,0.464-1.786,0.653c-1.117,0.349-2.232,0.708-3.367,0.99
			c-1.034,0.256-2.09,0.435-3.143,0.606c-0.852,0.14-1.711,0.237-2.57,0.32c-0.827,0.076-1.66,0.126-2.492,0.158
			c-0.898,0.037-1.799,0.075-2.697,0.048c-0.953-0.026-1.906-0.108-2.855-0.206c-0.969-0.098-1.943-0.207-2.902-0.382
			c-1.076-0.191-2.148-0.427-3.205-0.706c-1.007-0.267-2.006-0.58-2.986-0.933c-1.016-0.364-2.016-0.777-3.004-1.214
			c-0.877-0.387-1.74-0.814-2.586-1.264C3.957,51.127,3.162,50.636,2.354,50.162z"/>
	</g>
</g>
</svg>
