<?xml version="1.0" encoding="utf-8"?>
<!-- Generator: Adobe Illustrator 16.0.0, SVG Export Plug-In . SVG Version: 6.00 Build 0)  -->
<!DOCTYPE svg PUBLIC "-//W3C//DTD SVG 1.1//EN" "http://www.w3.org/Graphics/SVG/1.1/DTD/svg11.dtd">
<svg version="1.1" id="Layer_1" xmlns="http://www.w3.org/2000/svg" xmlns:xlink="http://www.w3.org/1999/xlink" x="0px" y="0px"
	 width="75px" height="75px" viewBox="0 0 75 75" enable-background="new 0 0 75 75" xml:space="preserve">
<g>
	<path fill="#2B5682" d="M25.57,70.785c-4.847,0-9.404-1.889-12.832-5.316c-7.075-7.076-7.075-18.588,0-25.664l18.656-18.656
		l25.664,25.664L38.402,65.469C34.974,68.896,30.417,70.785,25.57,70.785z M31.395,25.391L14.859,41.926
		c-5.905,5.906-5.905,15.516,0,21.422c2.861,2.861,6.665,4.438,10.711,4.438c4.045,0,7.849-1.576,10.711-4.438l16.535-16.535
		L31.395,25.391z"/>
	<path fill="#2B5682" d="M51.615,43.488L34.717,26.592L51.616,9.692l16.897,16.899L51.615,43.488z M54.275,20.884l-2.846-2.846
		l-3.252,3.253l2.846,2.847L54.275,20.884z M60.752,27.36l-2.847-2.847l-3.252,3.253l2.846,2.846L60.752,27.36z"/>
	<path fill="#2B5682" d="M26.088,65.025c-3.29,0-6.557-1.4-8.829-4.115c-0.532-0.635-0.448-1.582,0.188-2.113
		c0.634-0.533,1.581-0.447,2.113,0.188c3.007,3.594,8.378,4.07,11.973,1.064c0.636-0.533,1.582-0.447,2.113,0.189
		c0.532,0.635,0.447,1.58-0.188,2.111C31.31,64.146,28.692,65.025,26.088,65.025z"/>
</g>
</svg>
