<?xml version="1.0" encoding="utf-8"?>
<!-- Generator: Adobe Illustrator 16.0.0, SVG Export Plug-In . SVG Version: 6.00 Build 0)  -->
<!DOCTYPE svg PUBLIC "-//W3C//DTD SVG 1.1//EN" "http://www.w3.org/Graphics/SVG/1.1/DTD/svg11.dtd">
<svg version="1.1" id="Layer_1" xmlns="http://www.w3.org/2000/svg" xmlns:xlink="http://www.w3.org/1999/xlink" x="0px" y="0px"
	 width="75px" height="75px" viewBox="0 0 75 75" enable-background="new 0 0 75 75" xml:space="preserve">
<g>
	<path fill="#2B5682" d="M66.522,42.475c0.156,0.008,0.268,0.018,0.379,0.018c0.639,0,1.275-0.002,1.914,0
		c2.115,0.012,3.701,1.164,4.377,3.166c0.129,0.381,0.193,0.762,0.191,1.166c-0.008,3.621-0.005,7.242-0.005,10.863
		c0.134,0.803-0.758,1.529-1.401,1.561c-0.273,0.012-0.545,0.047-0.862,0.076c-0.005,0.127-0.013,0.258-0.013,0.391
		c0,2.277,0,4.555-0.004,6.832c0,0.238-0.008,0.482-0.063,0.711c-0.141,0.582-0.51,0.955-1.104,1.078
		c-0.178,0.037-0.361,0.051-0.543,0.051c-2.927,0.002-5.854,0.002-8.781,0.002c-0.066,0-0.135,0-0.203-0.004
		c-0.92-0.057-1.463-0.619-1.471-1.543c-0.012-1.537-0.015-3.074-0.019-4.611c-0.002-0.785-0.001-1.57-0.001-2.355
		c0-0.125,0-0.25,0-0.402c-0.232-0.055-0.453-0.098-0.668-0.162c-0.282-0.082-0.566-0.166-0.839-0.277
		c-0.397-0.166-0.624-0.488-0.699-0.908c-0.044-0.256-0.071-0.52-0.071-0.779c0.01-2.152,0.037-4.305,0.035-6.457
		c-0.001-1.16-0.047-2.322-0.076-3.482c-0.061-2.354,1.366-4.264,3.401-4.789c0.543-0.141,1.095-0.178,1.658-0.146
		c0.553,0.033,1.108,0.008,1.709,0.008c0.044-0.512,0.106-0.996,0.122-1.479c0.021-0.672,0.006-1.344,0.007-2.018
		c0.005-2.493,0.017-4.986,0.015-7.48c-0.002-1.673,0.021-3.349-0.045-5.02c-0.203-5.133-3.758-9.519-8.999-10.503
		c-5.64-1.058-11.155,2.355-12.694,7.847c-0.314,1.128-0.393,2.281-0.396,3.447c-0.01,5.625-0.034,11.25-0.047,16.875
		c-0.004,1.822,0.005,3.645,0.013,5.467c0.01,2.139,0.051,4.279,0.03,6.42c-0.017,1.713-0.231,3.404-0.75,5.047
		c-0.656,2.076-1.851,3.818-3.333,5.381c-1.74,1.834-3.821,3.107-6.277,3.746c-1.715,0.445-3.456,0.539-5.218,0.395
		c-4.993-0.41-9.566-3.754-11.534-8.547c-0.522-1.273-0.831-2.594-0.962-3.965c-0.178-1.863-0.13-3.73-0.13-5.598
		c0-3.006-0.001-6.014-0.003-9.02c0-0.064-0.008-0.133-0.014-0.217c-0.077-0.014-0.141-0.035-0.205-0.035
		c-0.581,0-1.161,0.016-1.741,0.004c-1.389-0.025-2.781-0.004-4.163-0.109c-2.01-0.156-3.486-1.225-4.504-2.936
		c-0.54-0.908-0.799-1.898-0.799-2.962c-0.002-4.703-0.011-9.406-0.015-14.109c-0.001-0.637,0.009-1.275,0.019-1.913
		c0.003-0.147,0.01-0.297,0.04-0.441c0.149-0.7,0.646-1.112,1.422-1.137c0.763-0.025,1.526-0.01,2.289-0.012
		c0.249,0,0.498,0,0.783,0c0.009-0.166,0.023-0.309,0.023-0.451C6.301,15.421,6.3,11.686,6.301,7.951
		c0-0.205,0.008-0.41,0.024-0.614c0.072-0.926,0.556-1.396,1.486-1.45c0.147-0.008,0.297-0.007,0.444-0.007
		c4.282,0,8.563-0.001,12.846,0.002c0.261,0,0.524,0.014,0.78,0.061c0.652,0.12,1.025,0.505,1.121,1.162
		c0.045,0.314,0.06,0.635,0.06,0.953c0.004,3.701,0.003,7.402,0.003,11.104c0,0.134,0,0.269,0,0.43
		c0.14,0.007,0.25,0.017,0.36,0.017c0.809,0.001,1.617-0.005,2.426,0.004c0.236,0.002,0.479,0.022,0.709,0.077
		c0.582,0.139,0.914,0.531,1.018,1.11c0.04,0.223,0.055,0.453,0.055,0.68c0.003,5.262,0.002,10.522,0.003,15.785
		c0,2.916-2.288,5.33-4.846,5.843c-0.388,0.078-0.791,0.107-1.188,0.109c-1.628,0.012-3.256,0.006-4.885,0.006
		c-0.135,0-0.27,0-0.408,0c-0.025,0.064-0.054,0.105-0.056,0.146c-0.024,0.465-0.064,0.932-0.064,1.398
		c-0.006,3.895-0.026,7.789,0.005,11.684c0.023,3.082,1.069,5.773,3.276,7.963c1.735,1.721,3.846,2.725,6.253,3.111
		c5.094,0.818,10.389-2.438,12-7.352c0.321-0.984,0.482-1.994,0.512-3.02c0.05-1.811,0.063-3.619,0.086-5.43
		c0.011-0.898,0.004-1.799,0.004-2.699c0-7.426-0.004-14.85,0.002-22.275c0.002-3.798,1.404-7.032,4.013-9.753
		c1.755-1.831,3.843-3.161,6.316-3.756c5.122-1.231,9.713-0.193,13.589,3.469c1.926,1.818,3.135,4.082,3.807,6.637
		c0.338,1.286,0.477,2.595,0.477,3.92c0,4.908-0.004,9.816-0.006,14.725C66.522,42.139,66.522,42.287,66.522,42.475z M4.754,22.687
		c0,0.149,0,0.282,0,0.416c0.001,4.555,0.002,9.11,0.008,13.666c0,0.293,0.021,0.592,0.075,0.881
		c0.238,1.259,0.963,2.078,2.221,2.408c0.445,0.115,0.897,0.135,1.354,0.135c4.259-0.002,8.519-0.004,12.776-0.006
		c0.138,0,0.274,0.002,0.41-0.01c0.984-0.084,1.84-0.428,2.423-1.27c0.42-0.611,0.572-1.306,0.572-2.04
		c0.002-4.612,0.005-9.224,0.006-13.836c0-0.11-0.011-0.22-0.018-0.344C17.969,22.687,11.381,22.687,4.754,22.687z M59.662,56.133
		c0.412,0.076,10.442,0.057,10.694-0.021c0-0.072,0-0.152,0-0.23c0-2.902,0-5.805,0-8.707c0-0.08,0-0.16-0.008-0.238
		c-0.064-0.734-0.484-1.215-1.209-1.373c-0.154-0.035-0.314-0.051-0.474-0.051c-2.413-0.004-4.825-0.004-7.237,0
		c-0.215,0-0.435,0.021-0.644,0.07c-0.528,0.125-0.896,0.445-1.027,0.98c-0.065,0.262-0.103,0.539-0.103,0.809
		c-0.01,2.811-0.01,5.623-0.01,8.434C59.646,55.916,59.655,56.025,59.662,56.133z M9.372,9.005c0,3.5,0,7.001,0,10.5
		c0.37,0.073,10.331,0.06,10.577-0.012c0-3.502,0-7.004,0-10.503 M68.022,59.314c-2.014,0-3.998,0-5.992,0c0,2.004,0,3.988,0,5.984
		c2.008,0,3.992,0,5.992,0C68.022,63.301,68.022,61.326,68.022,59.314z"/>
</g>
</svg>
