<?xml version="1.0" encoding="utf-8"?>
<!-- Generator: Adobe Illustrator 16.0.0, SVG Export Plug-In . SVG Version: 6.00 Build 0)  -->
<!DOCTYPE svg PUBLIC "-//W3C//DTD SVG 1.1//EN" "http://www.w3.org/Graphics/SVG/1.1/DTD/svg11.dtd">
<svg version="1.1" id="Instagram" xmlns="http://www.w3.org/2000/svg" xmlns:xlink="http://www.w3.org/1999/xlink" x="0px" y="0px"
	 width="72px" height="72px" viewBox="0 0 72 72" enable-background="new 0 0 72 72" xml:space="preserve">
<g>
	<rect id="instagram-back" fill="#517EA3" width="72" height="72"/>
	<path id="instagram-instagram" fill="#FFFFFF" d="M51.508,32.896h-3.51c0.256,0.993,0.408,2.03,0.408,3.103
		c0,6.853-5.555,12.407-12.407,12.407c-6.851,0-12.405-5.555-12.405-12.407c0-1.072,0.152-2.109,0.408-3.103h-3.511v17.061
		c0,0.854,0.695,1.549,1.553,1.549h27.912c0.858,0,1.552-0.694,1.552-1.549V32.896z M51.508,22.042c0-0.856-0.693-1.551-1.552-1.551
		h-4.651c-0.856,0-1.551,0.695-1.551,1.551v4.653c0,0.856,0.694,1.55,1.551,1.55h4.651c0.858,0,1.552-0.694,1.552-1.55V22.042z
		 M36,28.246c-4.282,0-7.754,3.471-7.754,7.753s3.472,7.755,7.754,7.755c4.284,0,7.754-3.473,7.754-7.755S40.283,28.246,36,28.246
		 M51.508,56.16H20.491c-2.568,0-4.651-2.084-4.651-4.654V20.491c0-2.569,2.083-4.651,4.651-4.651h31.017
		c2.57,0,4.652,2.082,4.652,4.651v31.015C56.16,54.076,54.078,56.16,51.508,56.16"/>
</g>
</svg>
