<?xml version="1.0" encoding="utf-8"?>
<!-- Generator: Adobe Illustrator 16.0.0, SVG Export Plug-In . SVG Version: 6.00 Build 0)  -->
<!DOCTYPE svg PUBLIC "-//W3C//DTD SVG 1.1//EN" "http://www.w3.org/Graphics/SVG/1.1/DTD/svg11.dtd">
<svg version="1.1" id="Google_x2B_" xmlns="http://www.w3.org/2000/svg" xmlns:xlink="http://www.w3.org/1999/xlink" x="0px"
	 y="0px" width="72px" height="72px" viewBox="0 0 72 72" enable-background="new 0 0 72 72" xml:space="preserve">
<g>
	<rect id="google--back" fill="#DC4B3E" width="72" height="72"/>
	<g id="google--google-">
		<g>
			<path fill="#FFFFFF" d="M9.85,37.94c-0.329-8.626,7.229-16.597,15.862-16.7c4.401-0.375,8.681,1.333,12.014,4.122
				c-1.365,1.5-2.758,2.986-4.241,4.377c-2.933-1.782-6.462-3.139-9.889-1.934c-5.528,1.574-8.872,8.099-6.83,13.506
				c1.694,5.646,8.565,8.745,13.946,6.371c2.79-0.997,4.624-3.569,5.43-6.332c-3.194-0.063-6.391-0.024-9.584-0.113
				c-0.005-1.9-0.016-3.793-0.005-5.693c5.326-0.008,10.663-0.023,15.997,0.025c0.325,4.655-0.36,9.64-3.386,13.377
				c-4.146,5.334-11.806,6.9-18.036,4.809C14.513,51.581,9.707,44.922,9.85,37.94"/>
			<path fill="#FFFFFF" d="M52.931,30.752h4.753c0.008,1.589,0.021,3.186,0.03,4.777c1.591,0.015,3.188,0.021,4.779,0.031v4.759
				c-1.592,0.008-3.188,0.018-4.779,0.024c-0.013,1.598-0.022,3.186-0.03,4.784c-1.59-0.007-3.18,0-4.762,0
				c-0.016-1.599-0.016-3.187-0.03-4.776c-1.589-0.015-3.188-0.024-4.775-0.032v-4.759c1.588-0.01,3.178-0.017,4.775-0.031
				C52.9,33.938,52.916,32.342,52.931,30.752"/>
		</g>
	</g>
</g>
</svg>
