<?xml version="1.0" encoding="utf-8"?>
<!-- Generator: Adobe Illustrator 16.0.0, SVG Export Plug-In . SVG Version: 6.00 Build 0)  -->
<!DOCTYPE svg PUBLIC "-//W3C//DTD SVG 1.1//EN" "http://www.w3.org/Graphics/SVG/1.1/DTD/svg11.dtd">
<svg version="1.1" id="Twitter" xmlns="http://www.w3.org/2000/svg" xmlns:xlink="http://www.w3.org/1999/xlink" x="0px" y="0px"
	 width="72px" height="72px" viewBox="0 0 72 72" enable-background="new 0 0 72 72" xml:space="preserve">
<g>
	<rect id="twitter-back" fill="#55ACEE" width="72" height="72"/>
	<path id="twitter-twitter" fill="#FFFFFF" d="M56.16,23.495c-1.483,0.658-3.078,1.103-4.752,1.303
		c1.709-1.024,3.02-2.645,3.638-4.576c-1.599,0.947-3.368,1.636-5.253,2.007c-1.509-1.608-3.658-2.612-6.037-2.612
		c-4.569,0-8.273,3.704-8.273,8.271c0,0.649,0.073,1.28,0.214,1.885c-6.875-0.345-12.97-3.638-17.05-8.643
		c-0.712,1.222-1.12,2.643-1.12,4.159c0,2.87,1.46,5.401,3.68,6.885c-1.356-0.043-2.632-0.416-3.747-1.035
		c-0.001,0.035-0.001,0.069-0.001,0.104c0,4.008,2.852,7.351,6.636,8.111c-0.694,0.188-1.425,0.29-2.179,0.29
		c-0.533,0-1.052-0.052-1.557-0.148c1.053,3.286,4.108,5.678,7.728,5.745c-2.831,2.219-6.398,3.541-10.273,3.541
		c-0.668,0-1.326-0.039-1.973-0.116c3.661,2.348,8.008,3.716,12.68,3.716c15.216,0,23.536-12.604,23.536-23.536
		c0-0.358-0.008-0.715-0.024-1.07C53.648,26.611,55.051,25.154,56.16,23.495z"/>
</g>
</svg>
