<?xml version="1.0" encoding="utf-8"?>
<!-- Generator: Adobe Illustrator 16.0.0, SVG Export Plug-In . SVG Version: 6.00 Build 0)  -->
<!DOCTYPE svg PUBLIC "-//W3C//DTD SVG 1.1//EN" "http://www.w3.org/Graphics/SVG/1.1/DTD/svg11.dtd">
<svg version="1.1" id="Layer_1" xmlns="http://www.w3.org/2000/svg" xmlns:xlink="http://www.w3.org/1999/xlink" x="0px" y="0px"
	 width="280px" height="200px" viewBox="0 0 280 200" enable-background="new 0 0 280 200" xml:space="preserve">
<path fill="#D8D8D8" d="M153.545,17.304h-11.629v1.828h11.629V17.304z M120.316,22.979c-1.8,0.977-3.198,2.172-3.971,3.628h3.971
	V22.979z M180.697,40.376l-4.383,4.463l-0.212,2.27h5.261v-6.733H180.697z M141.154,76.035l-22.638-23.88l3.712,43.14
	L141.154,76.035z M145.632,76.094l21.642,22.792l4.49-48.191h-0.442v-0.77L145.632,76.094z M118.08,47.078l25.324,26.669
	l14.978-15.242h-21.117V50.53h24.423v4.611l9.635-9.805v-8.544h1.739l0.562-6.031h-56.946L118.08,47.078z M179.22,116.188
	c0.104,0.622,0.157,1.263,0.157,1.915c0,6.343-5.142,11.484-11.483,11.484c-4.405,0-8.23-2.479-10.157-6.118h-28.085v5.999h-7.389
	v-6.015c-0.865-0.121-1.696-0.944-1.77-1.807l-1.577-18.338L79.771,143.18l-2.34-2.299l41.117-41.841l-4.433-51.527L75,6.25V1.707
	l38.679,40.736l-1.019-11.848h-4.803v-3.987h4.226c0.072-0.224,0.169-0.486,0.296-0.779c1.405-3.248,4.307-5.57,7.938-7.222v-2.635
	h6.813v0.407c3.55-0.815,7.303-1.259,10.799-1.484v-1.579h19.604v9.803h-19.604v-4.142c-3.473,0.26-7.306,0.734-10.799,1.565v6.065
	h46.336c-1.819-4.291-8.889-6.3-15.933-7.211v-4.06c7.069,0.876,14.335,2.853,17.984,7.123c0.973-1.239,2.484-2.035,4.183-2.035
	c2.938,0,5.315,2.38,5.315,5.316s-2.378,5.317-5.315,5.317c-0.731,0-1.427-0.148-2.061-0.415l-0.575,6.147h2.654l35.004-35.62v4.546
	l-30.505,31.073h0.634v13.904h-9.082l-4.85,52.032l35.873,37.78l-2.381,2.258L179.22,116.188z M156.407,118.103
	c0-5.888,4.43-10.739,10.139-11.407l0.328-3.529l-23.492-24.781L122.594,99.56l1.713,19.921h32.182
	C156.437,119.029,156.407,118.568,156.407,118.103z M161.919,118.103c0,3.298,2.675,5.973,5.974,5.973s5.972-2.675,5.972-5.973
	c0-3.299-2.673-5.973-5.972-5.973S161.919,114.804,161.919,118.103z M164.013,118.103c0-2.143,1.737-3.879,3.88-3.879
	c2.142,0,3.878,1.736,3.878,3.879c0,2.142-1.736,3.879-3.878,3.879C165.75,121.981,164.013,120.244,164.013,118.103z
	 M86.258,171.429h115.526v28.131H86.258V171.429z"/>
</svg>
