<?xml version="1.0" encoding="utf-8"?>
<!-- Generator: Adobe Illustrator 16.0.0, SVG Export Plug-In . SVG Version: 6.00 Build 0)  -->
<!DOCTYPE svg PUBLIC "-//W3C//DTD SVG 1.1//EN" "http://www.w3.org/Graphics/SVG/1.1/DTD/svg11.dtd">
<svg version="1.1" id="Layer_1" xmlns="http://www.w3.org/2000/svg" xmlns:xlink="http://www.w3.org/1999/xlink" x="0px" y="0px"
	 width="75px" height="75px" viewBox="0 0 75 75" enable-background="new 0 0 75 75" xml:space="preserve">
<g>
	<path fill="#2B5682" d="M25.076,52.324c-1.447,1.529-1.447,4.008,0,5.537c1.448,1.529,3.795,1.529,5.243,0
		c3.943-4.166,10.363-4.166,14.309,0c0.725,0.764,1.674,1.146,2.621,1.146s1.896-0.381,2.621-1.146c1.447-1.529,1.447-4.008,0-5.537
		C43.036,45.105,31.911,45.105,25.076,52.324z"/>
	<path fill="#2B5682" d="M14.211,40.85c-1.449,1.527-1.449,4.008,0,5.535c1.447,1.529,3.795,1.529,5.243,0
		c9.937-10.493,26.104-10.493,36.037,0c0.727,0.766,1.676,1.148,2.625,1.148c0.947,0,1.896-0.383,2.619-1.148
		c1.449-1.527,1.449-4.008,0-5.535C47.909,27.3,27.038,27.3,14.211,40.85z"/>
	<path fill="#2B5682" d="M72.862,28.041c-19.512-20.61-51.264-20.61-70.776,0c-1.448,1.529-1.448,4.009,0,5.537
		c1.448,1.529,3.795,1.529,5.242,0c8.053-8.505,18.758-13.188,30.146-13.188c11.388,0,22.093,4.684,30.146,13.188
		c0.725,0.764,1.672,1.147,2.621,1.147s1.898-0.382,2.621-1.147C74.312,32.048,74.312,29.569,72.862,28.041z"/>
	<ellipse fill="#2B5682" cx="37.474" cy="66.453" rx="4.066" ry="4.297"/>
</g>
</svg>
